<?xml version="1.0" encoding="utf-8"?>
<!-- Generator: Adobe Illustrator 16.0.0, SVG Export Plug-In . SVG Version: 6.00 Build 0)  -->
<!DOCTYPE svg PUBLIC "-//W3C//DTD SVG 1.1//EN" "http://www.w3.org/Graphics/SVG/1.1/DTD/svg11.dtd">
<svg version="1.1" xmlns="http://www.w3.org/2000/svg" xmlns:xlink="http://www.w3.org/1999/xlink" x="0px" y="0px"
	 width="595.28px" height="841.89px" viewBox="0 0 595.28 841.89" enable-background="new 0 0 595.28 841.89" xml:space="preserve">
<g id="background">
	<rect fill="#3E3A39" stroke="#FFFFFF" stroke-miterlimit="10" width="595.28" height="420.945"/>
	<rect x="0.001" y="420.944" fill="#3E3A39" stroke="#FFFFFF" stroke-miterlimit="10" width="595.28" height="420.944"/>
	<text transform="matrix(1 0 0 1 491.417 408.0337)" fill="#EFEFEF" font-family="'Consolas-Bold'" font-size="21">Frontend</text>
	<text transform="matrix(1 0 0 1 502.9629 828.0332)" fill="#EFEFEF" font-family="'Consolas-Bold'" font-size="21">Backend</text>
</g>
<g id="frontend">
	<g>
		<text transform="matrix(1 0 0 1 22.7383 237.4731)" fill="#EFEFEF" font-family="'Consolas-Bold'" font-size="100">SuperGeek;</text>
		
			<text transform="matrix(1 0 0 1 80.9985 176.8574)" fill="#EFEFEF" font-family="'NotoSansCJKjp-Bold-90ms-RKSJ-H'" font-size="28">極度御宅{オタク}</text>
	</g>
</g>
<g id="backend-rtfm" display="none">
	<g display="inline">
		<text transform="matrix(1 0 0 1 60.125 631.4648)" fill="#EFEFEF" font-family="'Consolas-Bold'" font-size="48">/* STFW &amp;&amp; RTFM */</text>
		<text transform="matrix(1 0 0 1 211.0464 664.4629)" fill="#EFEFEF" font-family="'Consolas-Bold'" font-size="21">Powered by CCNS</text>
	</g>
</g>
<g id="backend-chinese" display="none">
	<g display="inline">
		<text transform="matrix(1 0 0 1 105.6401 631.417)"><tspan x="0" y="0" fill="#EFEFEF" font-family="'NotoSansCJKjp-Medium-90ms-RKSJ-H'" font-size="48">沒有套件可以用？</tspan><tspan x="48" y="68" fill="#EFEFEF" font-family="'NotoSansCJKjp-Medium-90ms-RKSJ-H'" font-size="48">自幹一套啊！</tspan></text>
		<text transform="matrix(1 0 0 1 211.0469 740.7207)" fill="#EFEFEF" font-family="'Consolas-Bold'" font-size="21">Powered by CCNS</text>
	</g>
</g>
<g id="backend-comment">
	<text transform="matrix(1 0 0 1 89.8149 640.8242)" fill="#EFEFEF" font-family="'Consolas-Bold'" font-size="36">/* Powered by CCNS */</text>
</g>
</svg>
